HIERARCHY
ROOT hip
{
  OFFSET 0 0 0
  CHANNELS 6 Xposition Yposition Zposition Zrotation Yrotation Xrotation
  JOINT abdomen
  {
    OFFSET 0 20.6881 -0.73152
    CHANNELS 3 Zrotation Xrotation Yrotation
    JOINT chest
    {
      OFFSET 0 11.7043 -0.48768
      CHANNELS 3 Zrotation Xrotation Yrotation
      JOINT neck
      {
        OFFSET 0 22.1894 -2.19456
        CHANNELS 3 Zrotation Xrotation Yrotation
        JOINT head
        {
          OFFSET -0.24384 7.07133 1.2192
          CHANNELS 3 Zrotation Xrotation Yrotation
          JOINT leftEye
          {
            OFFSET 4.14528 8.04674 8.04672
            CHANNELS 3 Zrotation Xrotation Yrotation
            End Site
            {
              OFFSET 1 0 0
            }
          }
          JOINT rightEye
          {
            OFFSET -3.6576 8.04674 8.04672
            CHANNELS 3 Zrotation Xrotation Yrotation
            End Site
            {
              OFFSET 1 0 0
            }
          }
        }
      }
      JOINT rCollar
      {
        OFFSET -2.68224 19.2634 -4.8768
        CHANNELS 3 Zrotation Xrotation Yrotation
        JOINT rShldr
        {
          OFFSET -8.77824 -1.95073 1.46304
          CHANNELS 3 Zrotation Xrotation Yrotation
          JOINT rForeArm
          {
            OFFSET -28.1742 -1.7115 0.48768
            CHANNELS 3 Zrotation Xrotation Yrotation
            JOINT rHand
            {
              OFFSET -22.5879 0.773209 7.07136
              CHANNELS 3 Zrotation Xrotation Yrotation
              JOINT rThumb1
              {
                OFFSET -1.2192 -0.487915 3.41376
                CHANNELS 3 Zrotation Xrotation Yrotation
                JOINT rThumb2
                {
                  OFFSET -3.37035 -0.52449 3.41376
                  CHANNELS 3 Zrotation Xrotation Yrotation
                  End Site
                  {
                    OFFSET -1.78271 -1.18214 1.43049
                  }
                }
              }
              JOINT rIndex1
              {
                OFFSET -7.75947 0.938293 5.60832
                CHANNELS 3 Zrotation Xrotation Yrotation
                JOINT rIndex2
                {
                  OFFSET -2.54057 -0.884171 1.56538
                  CHANNELS 3 Zrotation Xrotation Yrotation
                  End Site
                  {
                    OFFSET -1.62519 -0.234802 1.16502
                  }
                }
              }
              JOINT rMid1
              {
                OFFSET -8.24714 1.18213 3.41376
                CHANNELS 3 Zrotation Xrotation Yrotation
                JOINT rMid2
                {
                  OFFSET -3.10165 -0.590103 1.0647
                  CHANNELS 3 Zrotation Xrotation Yrotation
                  End Site
                  {
                    OFFSET -2.48547 -0.328903 0.83742
                  }
                }
              }
              JOINT rRing1
              {
                OFFSET -8.82822 0.546677 1.51678
                CHANNELS 3 Zrotation Xrotation Yrotation
                JOINT rRing2
                {
                  OFFSET -2.60934 -0.819778 -0.0198488
                  CHANNELS 3 Zrotation Xrotation Yrotation
                  End Site
                  {
                    OFFSET -2.33842 -0.294052 0.168128
                  }
                }
              }
              JOINT rPinky1
              {
                OFFSET -8.27202 -0.0477905 -0.4584
                CHANNELS 3 Zrotation Xrotation Yrotation
                JOINT rPinky2
                {
                  OFFSET -1.82734 -0.647385 -0.700984
                  CHANNELS 3 Zrotation Xrotation Yrotation
                  End Site
                  {
                    OFFSET -1.69225 -0.51767 -0.607171
                  }
                }
              }
            }
          }
        }
      }
      JOINT lCollar
      {
        OFFSET 2.68224 19.2634 -4.8768
        CHANNELS 3 Zrotation Xrotation Yrotation
        JOINT lShldr
        {
          OFFSET 8.77824 -1.95073 1.46304
          CHANNELS 3 Zrotation Xrotation Yrotation
          JOINT lForeArm
          {
            OFFSET 28.1742 -1.7115 0.48768
            CHANNELS 3 Zrotation Xrotation Yrotation
            JOINT lHand
            {
              OFFSET 22.5879 0.773209 7.07136
              CHANNELS 3 Zrotation Xrotation Yrotation
              JOINT lThumb1
              {
                OFFSET 1.2192 -0.487915 3.41376
                CHANNELS 3 Zrotation Xrotation Yrotation
                JOINT lThumb2
                {
                  OFFSET 3.37035 -0.52449 3.41376
                  CHANNELS 3 Zrotation Xrotation Yrotation
                  End Site
                  {
                    OFFSET 1.78271 -1.18214 1.43049
                  }
                }
              }
              JOINT lIndex1
              {
                OFFSET 7.75947 0.938293 5.60832
                CHANNELS 3 Zrotation Xrotation Yrotation
                JOINT lIndex2
                {
                  OFFSET 2.54057 -0.884171 1.56538
                  CHANNELS 3 Zrotation Xrotation Yrotation
                  End Site
                  {
                    OFFSET 1.62519 -0.234802 1.16502
                  }
                }
              }
              JOINT lMid1
              {
                OFFSET 8.24714 1.18213 3.41376
                CHANNELS 3 Zrotation Xrotation Yrotation
                JOINT lMid2
                {
                  OFFSET 3.10165 -0.590103 1.0647
                  CHANNELS 3 Zrotation Xrotation Yrotation
                  End Site
                  {
                    OFFSET 2.48547 -0.328903 0.83742
                  }
                }
              }
              JOINT lRing1
              {
                OFFSET 8.82822 0.546677 1.51678
                CHANNELS 3 Zrotation Xrotation Yrotation
                JOINT lRing2
                {
                  OFFSET 2.60934 -0.819778 -0.0198488
                  CHANNELS 3 Zrotation Xrotation Yrotation
                  End Site
                  {
                    OFFSET 2.33842 -0.294052 0.168128
                  }
                }
              }
              JOINT lPinky1
              {
                OFFSET 8.27202 -0.0477905 -0.4584
                CHANNELS 3 Zrotation Xrotation Yrotation
                JOINT lPinky2
                {
                  OFFSET 1.82734 -0.647385 -0.700984
                  CHANNELS 3 Zrotation Xrotation Yrotation
                  End Site
                  {
                    OFFSET 1.69225 -0.51767 -0.607171
                  }
                }
              }
            }
          }
        }
      }
    }
  }
  JOINT rButtock
  {
    OFFSET -8.77824 4.35084 1.2192
    CHANNELS 3 Zrotation Xrotation Yrotation
    JOINT rThigh
    {
      OFFSET 0 -1.70687 -2.19456
      CHANNELS 3 Zrotation Xrotation Yrotation
      JOINT rShin
      {
        OFFSET 0 -36.8199 0.73152
        CHANNELS 3 Zrotation Xrotation Yrotation
        JOINT rFoot
        {
          OFFSET 0.73152 -45.1104 -5.12064
          CHANNELS 3 Zrotation Xrotation Yrotation
          End Site
          {
            OFFSET -1.1221 -3.69964 12.103
          }
        }
      }
    }
  }
  JOINT lButtock
  {
    OFFSET 8.77824 4.35084 1.2192
    CHANNELS 3 Zrotation Xrotation Yrotation
    JOINT lThigh
    {
      OFFSET 0 -1.70687 -2.19456
      CHANNELS 3 Zrotation Xrotation Yrotation
      JOINT lShin
      {
        OFFSET 0 -36.8199 0.73152
        CHANNELS 3 Zrotation Xrotation Yrotation
        JOINT lFoot
        {
          OFFSET -0.73152 -45.1104 -5.12064
          CHANNELS 3 Zrotation Xrotation Yrotation
          End Site
          {
            OFFSET 1.1221 -3.69964 12.103
          }
        }
      }
    }
  }
}
MOTION
Frames:	5
Frame Time:	0.00833333
-61.3723 77.8888 26.6309 179.581951 15.597951 -178.9551 -5.674672 6.802799 -86.384424 9.641371 -1.167016 88.176131 5.770895 15.328555 104.182278 -21.369736 10.300261 -137.351105 -0.001282 -0.0 0.000904 -0.000499 -0.0 0.004658 -6.473018 26.864926 7.715839 -147.277364 40.526279 158.228387 -177.944762 0.117423 -132.345191 -8.607512 16.829229 -0.257393 -2.608753 2.554415 0.457641 -108.283261 3.546795 98.641295 -46.208508 39.653979 36.316934 -15.872952 28.533072 7.62002 -156.686489 5.002604 141.076502 -168.108744 -19.513675 143.891827 -74.841507 72.960592 92.828138 -76.580772 83.272914 85.476759 -75.778342 -51.666522 -74.249917 -159.887092 55.881594 -148.514269 -0.11866 -0.713952 0.158387 -2.549484 26.744737 -0.607544 177.686509 15.851812 -25.394592 -176.962536 -10.146558 -143.596584 -114.538508 -50.245566 -55.722315 38.905071 2.830653 6.692093 -24.074141 -42.306963 5.55985 -14.304972 2.278783 2.327767 -89.035254 -81.393145 -59.759694 -9.723669 -20.377886 1.334491 72.350837 72.975899 -90.217508 76.645364 83.212252 -85.539062 1.177575 -2.985338 1.09269 158.486958 52.409904 149.943665 -179.995092 75.74833 -0.004038 -129.38804 -6.810478 93.617915 130.871805 22.309697 -136.499862 97.081864 -0.008493 -53.248462 -179.994683 75.749982 -0.004375 -173.896142 61.682103 55.387188 44.390315 31.106541 50.487345 -33.307181 -22.899513 -109.938722
-61.2868 77.9666 26.714199999999998 179.738038 15.452391 -178.590035 -5.516173 6.494842 -83.11457 9.642142 -1.753909 84.467628 -14.802616 13.304345 -70.590115 24.632044 7.826121 35.007221 0.002108 0.0 0.000399 0.002108 0.0 0.000399 3.540257 -62.053007 -13.041181 11.217868 16.2698 5.716028 1.821802 32.82767 48.893931 -7.756411 14.175345 -0.561514 1.841971 -1.827321 -0.254283 -123.106114 -13.434949 110.784664 -0.3276 0.530066 0.18514 2.316538 12.493674 2.296138 7.903613 -24.80768 -3.013807 86.234612 -78.333351 57.584792 -0.016279 -1.32318 -0.415654 6.780285 31.045206 4.967458 -157.333989 57.247037 -150.506936 -81.217578 -52.89915 -79.972821 13.947441 42.750367 -15.78454 -11.35031 13.901913 2.027335 -167.68059 56.55124 -36.598528 179.046334 1.990827 -143.35477 160.053791 2.213985 -88.877805 76.179958 0.37879 -28.915233 153.45399 -21.067417 -121.744776 61.907029 57.394003 -46.191328 36.037647 51.722555 -29.832893 83.146614 64.253724 -75.294575 69.296478 72.947034 -87.016687 -2.944991 46.286002 -2.998676 148.607706 23.708575 144.776796 148.473768 13.742632 142.183523 -179.995304 75.749022 -0.003213 -131.928057 -5.730728 94.431163 124.931341 14.23651 -67.778866 38.472289 6.719882 -48.448142 -179.987994 75.751861 -0.008215 -170.991873 59.350727 -175.945631 19.784196 -49.578967 95.339488 -166.200565 53.269061 -110.13849
-61.1919 78.0493 26.802599999999998 179.878102 15.3088 -178.225111 -5.36615 6.20534 -79.905425 9.606161 -2.317614 80.828058 -8.820264 5.291787 -12.402856 11.99622 -9.841675 -21.310022 0.003242 -0.0 -0.003435 -0.001684 -0.0 0.001302 4.238721 -44.742738 -8.648589 -157.459028 12.428167 171.231972 -170.420515 -46.786496 -130.78945 -6.276276 9.67346 -0.970811 -95.360805 37.750327 54.682655 144.968333 -49.552808 65.124143 -90.225452 41.073187 75.796962 -67.132039 52.750326 46.503877 0.541504 -1.589878 -0.294954 -162.997222 -3.907564 143.259853 0.00691 1.687625 0.529494 10.188546 0.034636 -0.062425 6.227058 18.789632 5.57477 -10.631955 -26.300635 -11.595129 33.835401 -85.665897 55.252556 0.236775 -0.461365 -14.994947 133.054011 79.436362 102.153331 5.868703 4.54377 1.581027 2.924581 2.862666 -0.520219 66.521613 26.736794 -61.555696 123.870068 22.788735 -104.455912 -45.253688 -54.574218 -4.008894 0.057161 0.167975 -0.031885 7.305377 26.197176 -6.028228 -0.00229 0.063845 -0.019972 155.7152 -5.767263 -172.548086 25.536964 -38.087238 24.599494 -2.067963 -3.034484 1.253771 -179.986501 75.750404 -0.011911 -134.460822 -4.368181 90.720095 123.622147 22.248794 -122.837317 -55.29999 -10.911282 58.005114 -0.002701 0.000409 -0.0 4.832539 -16.526698 169.053427 38.630482 -36.249277 136.84717 171.433796 61.353517 -83.69012
-61.08749999999999 78.13130000000001 26.893800000000002 179.996026 15.159637 -177.865081 -7.609564 7.782821 0.72051 1.645985 -11.772825 -0.220997 5.485465 15.109303 104.549995 -20.023961 10.095718 -137.672059 4.2e-05 0.0 0.000752 -0.000675 0.0 -0.003497 0.117889 -0.714021 -0.158326 20.52501 -32.00974 9.81966 -6.486496 22.450344 48.254387 -4.823538 5.709116 -1.18533 12.713602 -12.67394 -0.553331 -43.926963 31.23203 33.46098 1.506852 -2.484622 -0.828232 -79.368157 48.104463 62.188164 68.983504 -80.154175 40.578412 -172.381762 -31.321381 143.884821 -74.842258 72.960969 92.828004 -159.825527 -1.675524 176.523908 -155.320738 49.655236 -149.586362 16.10213 43.937318 6.362458 149.905241 22.421489 -154.974556 10.032779 61.159292 -34.481121 0.242096 -19.222975 156.66866 -175.621499 -16.036642 -143.369525 -176.504401 -20.694575 -88.627201 -174.624307 -23.329175 -103.619781 140.763539 1.3796 -116.227206 119.54033 45.849409 -95.210702 167.298669 -27.767258 -145.261209 -10.304078 -21.536984 1.169422 145.118005 0.185197 179.187308 -11.132954 63.107741 0.721867 135.070121 -13.384388 132.469897 20.854803 -36.938908 22.869919 179.967501 75.749535 0.026739 -135.701543 -4.045501 -180.0 148.791838 -43.934072 -148.468729 -33.957568 44.285874 107.609138 -0.002003 -0.000209 -0.000501 5.655718 -14.776262 1.555828 -32.217897 46.825858 -107.428211 -159.74923 15.397428 -152.3874
-60.9739 78.2076 26.9868 -179.91001 14.999442 -177.517034 -9.7576 4.376503 106.259455 -9.393527 -1.456376 -106.561412 -13.591334 19.749106 -110.872822 20.12615 22.361511 74.043256 -0.00089 -0.0 0.003175 -0.001557 0.0 -0.000524 2.821806 -21.775492 -4.329783 -78.721216 77.428496 95.642487 -172.642573 87.850738 98.680044 172.938724 -17.874945 143.322117 1.842356 -1.827195 -0.253521 9.47566 -14.684483 -8.840031 -138.493946 4.896432 114.864698 -159.235378 -6.401371 118.583719 -160.574776 -6.359426 143.196963 -42.499245 58.272267 36.599794 -145.116011 -0.35628 -179.016436 -73.669837 -78.001869 -95.219044 25.914291 79.094223 10.833689 -168.58845 69.445666 -146.561648 155.503686 -3.514729 -161.838032 146.628964 25.223886 -158.200234 24.522501 10.800423 -136.680699 -5.023433 -29.491709 0.802125 2.820534 2.761712 -0.500214 108.235276 3.453703 -98.596863 -45.284005 -63.864949 -4.306183 48.087628 51.138178 -39.381539 0.057254 0.167867 -0.032889 176.451748 -42.24561 -142.909166 75.672103 -72.116338 92.828882 150.983446 0.165365 -176.406702 -12.629649 42.93435 -10.535295 20.865297 -37.544271 21.078491 -179.976576 75.749842 -0.019273 -136.815636 -1.35538 -91.443682 -129.096381 -19.321148 -62.337659 93.236914 -19.059101 -139.869493 0.0 -0.000201 0.001054 6.380152 -17.585432 -180.0 16.913316 -47.423583 -96.620739 -109.165448 30.049855 4.715759
